<?xml version="1.0" standalone="no"?>
<!DOCTYPE svg PUBLIC "-//W3C//DTD SVG 20010904//EN"
 "http://www.w3.org/TR/2001/REC-SVG-20010904/DTD/svg10.dtd">
<svg version="1.0" xmlns="http://www.w3.org/2000/svg"
 width="512.000000pt" height="512.000000pt" viewBox="0 0 512.000000 512.000000"
 preserveAspectRatio="xMidYMid meet">
<metadata>
Created by potrace 1.14, written by Peter Selinger 2001-2017
</metadata>
<g transform="translate(0.000000,512.000000) scale(0.100000,-0.100000)"
fill="#000000" stroke="none">
<path d="M2185 4635 c-230 -46 -387 -121 -557 -268 -223 -191 -347 -457 -348
-742 0 -291 102 -521 327 -736 165 -157 320 -259 863 -569 533 -303 633 -371
744 -506 188 -228 212 -496 66 -723 -92 -142 -239 -245 -419 -293 -111 -29
-337 -36 -469 -14 -236 40 -444 140 -616 297 -159 145 -264 387 -342 787 -4
20 -10 22 -59 22 -30 0 -55 -3 -56 -7 -1 -10 -1 -1290 0 -1325 1 -27 3 -28 56
-28 52 0 55 2 60 28 18 87 37 132 71 161 31 28 42 31 97 31 65 0 177 -27 338
-80 388 -129 636 -163 915 -125 358 47 634 201 833 464 307 406 277 949 -74
1320 -120 127 -227 204 -515 373 -130 76 -207 119 -470 261 -319 173 -590 356
-717 485 -171 173 -210 391 -106 602 51 105 178 232 283 283 111 55 212 77
352 77 180 0 321 -35 490 -123 332 -172 516 -471 584 -949 l6 -48 59 0 59 0 0
680 0 680 -59 0 -59 0 -11 -46 c-46 -182 -157 -216 -376 -118 -136 61 -260
103 -400 135 -117 28 -441 36 -550 14z"/>
</g>
</svg>
